<svg width="40" height="40" viewBox="0 0 40 40" fill="none" xmlns="http://www.w3.org/2000/svg">
<path d="M20 9.16666C21.5471 9.16666 23.0308 9.78124 24.1248 10.8752C25.2188 11.9692 25.8333 13.4529 25.8333 15C25.8333 16.5471 25.2188 18.0308 24.1248 19.1248C23.0308 20.2187 21.5471 20.8333 20 20.8333C18.4529 20.8333 16.9692 20.2187 15.8752 19.1248C14.7812 18.0308 14.1667 16.5471 14.1667 15C14.1667 13.4529 14.7812 11.9692 15.8752 10.8752C16.9692 9.78124 18.4529 9.16666 20 9.16666ZM8.33333 13.3333C9.26667 13.3333 10.1333 13.5833 10.8833 14.0333C10.6333 16.4167 11.3333 18.7833 12.7667 20.6333C11.9333 22.2333 10.2667 23.3333 8.33333 23.3333C7.00725 23.3333 5.73548 22.8065 4.7978 21.8689C3.86012 20.9312 3.33333 19.6594 3.33333 18.3333C3.33333 17.0072 3.86012 15.7355 4.7978 14.7978C5.73548 13.8601 7.00725 13.3333 8.33333 13.3333ZM31.6667 13.3333C32.9927 13.3333 34.2645 13.8601 35.2022 14.7978C36.1399 15.7355 36.6667 17.0072 36.6667 18.3333C36.6667 19.6594 36.1399 20.9312 35.2022 21.8689C34.2645 22.8065 32.9927 23.3333 31.6667 23.3333C29.7333 23.3333 28.0667 22.2333 27.2333 20.6333C28.6667 18.7833 29.3667 16.4167 29.1167 14.0333C29.8667 13.5833 30.7333 13.3333 31.6667 13.3333ZM9.16667 30.4167C9.16667 26.9667 14.0167 24.1667 20 24.1667C25.9833 24.1667 30.8333 26.9667 30.8333 30.4167V33.3333H9.16667V30.4167ZM0 33.3333V30.8333C0 28.5167 3.15 26.5667 7.41667 26C6.43333 27.1333 5.83333 28.7 5.83333 30.4167V33.3333H0ZM40 33.3333H34.1667V30.4167C34.1667 28.7 33.5667 27.1333 32.5833 26C36.85 26.5667 40 28.5167 40 30.8333V33.3333Z" fill="white" fill-opacity="0.5"/>
</svg>
