<svg width="40" height="40" viewBox="0 0 40 40" fill="none" xmlns="http://www.w3.org/2000/svg">
<path d="M12.5 6.66666C10.0689 6.66666 7.73731 7.63243 6.01823 9.35151C4.29915 11.0706 3.33337 13.4022 3.33337 15.8333C3.33337 16.6667 3.48337 17.5 3.70004 18.3333H10.5L12.6167 12.7167C13.1167 11.3833 15.0834 11.25 15.7167 12.7167L19.1667 21.6667L20.15 19.3C20.3667 18.75 20.95 18.3333 21.6667 18.3333H36.3C36.5167 17.5 36.6667 16.6667 36.6667 15.8333C36.6667 13.4022 35.7009 11.0706 33.9819 9.35151C32.2628 7.63243 29.9312 6.66666 27.5 6.66666C24.4 6.66666 21.6667 8.21666 20 10.5667C18.3334 8.21666 15.6 6.66666 12.5 6.66666ZM5.00004 20.8333C4.55801 20.8333 4.13409 21.0089 3.82153 21.3215C3.50897 21.634 3.33337 22.058 3.33337 22.5C3.33337 22.942 3.50897 23.3659 3.82153 23.6785C4.13409 23.9911 4.55801 24.1667 5.00004 24.1667H9.06671L18.3334 33.3333C20 34.8333 20 34.8333 21.6667 33.3333L30.9334 24.1667H35C35.4421 24.1667 35.866 23.9911 36.1786 23.6785C36.4911 23.3659 36.6667 22.942 36.6667 22.5C36.6667 22.058 36.4911 21.634 36.1786 21.3215C35.866 21.0089 35.4421 20.8333 35 20.8333H22.3334L20.7834 24.6667C20.1167 26.35 18.2 26.1167 17.5834 24.7167L14.1667 15.8333L12.5667 19.7167C12.3167 20.35 11.75 20.8333 11 20.8333H5.00004Z" fill="white" fill-opacity="0.5"/>
</svg>
