<svg width="40" height="40" viewBox="0 0 40 40" fill="none" xmlns="http://www.w3.org/2000/svg">
<path d="M25.8334 20C30 20 33.3334 23.3333 33.3334 27.5C33.3334 28.9667 32.9167 30.35 32.1834 31.5L37.3167 36.6667L35 38.9833L29.8 33.8667C28.65 34.5833 27.2834 35 25.8334 35C21.6667 35 18.3334 31.6667 18.3334 27.5C18.3334 23.3333 21.6667 20 25.8334 20ZM25.8334 23.3333C24.7283 23.3333 23.6685 23.7723 22.8871 24.5537C22.1057 25.3351 21.6667 26.3949 21.6667 27.5C21.6667 28.6051 22.1057 29.6649 22.8871 30.4463C23.6685 31.2277 24.7283 31.6667 25.8334 31.6667C26.9384 31.6667 27.9983 31.2277 28.7797 30.4463C29.5611 29.6649 30 28.6051 30 27.5C30 26.3949 29.5611 25.3351 28.7797 24.5537C27.9983 23.7723 26.9384 23.3333 25.8334 23.3333ZM23.3334 10.1833L13.3334 6.66666V26.4833L15 27.0667V27.5C15 28.5667 15.15 29.6 15.4334 30.5667L13.3334 29.8333L4.43337 33.2833L4.16671 33.3333C3.94569 33.3333 3.73373 33.2455 3.57745 33.0893C3.42117 32.933 3.33337 32.721 3.33337 32.5V7.29999C3.33337 6.91666 3.58337 6.61666 3.93337 6.49999L13.3334 3.33333L23.3334 6.83333L32.2334 3.33333H32.5C32.7211 3.33333 32.933 3.42113 33.0893 3.57741C33.2456 3.73369 33.3334 3.94565 33.3334 4.16666V19.6833C31.3834 17.8167 28.75 16.6667 25.8334 16.6667C25 16.6667 24.1667 16.7667 23.3334 16.95V10.1833Z" fill="white" fill-opacity="0.5"/>
</svg>
