<svg width="40" height="40" viewBox="0 0 40 40" fill="none" xmlns="http://www.w3.org/2000/svg">
<path d="M30.0001 10V6.66668H33.3334V3.33334H10.0001C8.16675 3.33334 6.66675 4.83334 6.66675 6.66668V33.3333C6.66675 35.1667 8.16675 36.6667 10.0001 36.6667H33.3334V33.3333H26.6167C28.6667 31.8167 30.0001 29.4 30.0001 26.6667V18.3333H13.3334V26.6667C13.3334 29.4 14.6834 31.8167 16.7167 33.3333H10.0001V6.66668H13.3334V10C13.3334 10.9167 14.0834 11.6667 15.0001 11.6667H28.3334C29.2501 11.6667 30.0001 10.9167 30.0001 10ZM21.6667 13.3333C22.5834 13.3333 23.3334 14.0833 23.3334 15C23.3334 15.9167 22.5834 16.6667 21.6667 16.6667C20.7501 16.6667 20.0001 15.9167 20.0001 15C20.0001 14.0833 20.7501 13.3333 21.6667 13.3333Z" fill="#303030"/>
</svg>
