<svg width="40" height="40" viewBox="0 0 40 40" fill="none" xmlns="http://www.w3.org/2000/svg">
<path d="M0 38.2222H36V34.4692H0V38.2222ZM36 13.8272H32V8.19754H36V13.8272ZM36 4.44446H4V23.2099C4 25.2007 4.84285 27.1099 6.34315 28.5176C7.84344 29.9252 9.87827 30.7161 12 30.7161H24C26.1217 30.7161 28.1566 29.9252 29.6569 28.5176C31.1571 27.1099 32 25.2007 32 23.2099V17.5803H36C37.0609 17.5803 38.0783 17.1848 38.8284 16.481C39.5786 15.7772 40 14.8226 40 13.8272V8.19754C40 6.11458 38.2 4.44446 36 4.44446Z" fill="#303030"/>
</svg>
