<svg width="21" height="20" viewBox="0 0 21 20" fill="none" xmlns="http://www.w3.org/2000/svg">
<path d="M18.7523 3.64431H13.0094V4.70717H14.7023V6.38859H13.0094V6.92431H14.7023V8.60788H13.0094V9.15859H14.7023V10.7507H13.0094V11.3886H14.7023V12.9843H13.0094V13.6222H14.7023V15.2272H13.0094V16.3979H18.7523C18.843 16.3707 18.9187 16.2636 18.9794 16.0779C19.0401 15.8907 19.0716 15.7386 19.0716 15.6236V3.83859C19.0716 3.74716 19.0401 3.69216 18.9794 3.67288C18.9187 3.65431 18.843 3.64431 18.7523 3.64431ZM18.0073 15.2257H15.2523V13.6222H18.0073V15.2272V15.2257ZM18.0073 12.9843H15.2523V11.3879H18.0073V12.9843ZM18.0073 10.75H15.2523V9.16502H18.0073V10.75ZM18.0073 8.60717H15.2523V6.92574H18.0073V8.60717ZM18.0073 6.37931H15.2523V4.70788H18.0073V6.39002V6.37931ZM1.92871 3.37931V16.6657L12.043 18.415V1.58502L1.92871 3.38502V3.37931ZM7.92371 13.43C7.88514 13.3257 7.70371 12.8829 7.38228 12.0993C7.06157 11.3165 6.868 10.8607 6.81157 10.7307H6.79371L5.70871 13.3129L4.25871 13.215L5.97871 10.0007L4.40371 6.78645L5.88228 6.70859L6.85943 9.22359H6.87871L7.98228 6.59431L9.51014 6.49788L7.69085 9.97645L9.56585 13.525L7.92371 13.4286V13.43Z" fill="black"/>
</svg>
