<?xml version="1.0" encoding="UTF-8"?>
<!DOCTYPE svg PUBLIC "-//W3C//DTD SVG 1.1//EN" "http://www.w3.org/Graphics/SVG/1.1/DTD/svg11.dtd">
<svg xmlns="http://www.w3.org/2000/svg" version="1.1" width="44" height="44" style="shape-rendering:geometricPrecision; text-rendering:geometricPrecision; image-rendering:optimizeQuality; fill-rule:evenodd; clip-rule:evenodd" xmlns:xlink="http://www.w3.org/1999/xlink">
<g><path style="opacity:0.205" fill="#141312" d="M 16.5,-0.5 C 18.1667,-0.5 19.8333,-0.5 21.5,-0.5C 22.5887,3.0779 22.7554,6.74457 22,10.5C 21.2917,11.3805 20.4584,12.0472 19.5,12.5C 19.1667,12.5 18.8333,12.5 18.5,12.5C 18.5,10.5 18.5,8.5 18.5,6.5C 16.5,6.5 14.5,6.5 12.5,6.5C 17.5005,2.6335 20.0005,3.96683 20,10.5C 20.2734,8.89881 20.7734,7.39881 21.5,6C 20.6198,4.64387 20.2865,3.14387 20.5,1.5C 18.901,1.76781 17.5676,1.43448 16.5,0.5C 16.5,0.166667 16.5,-0.166667 16.5,-0.5 Z"/></g>
<g><path style="opacity:1" fill="#5a595c" d="M 16.5,0.5 C 17.5676,1.43448 18.901,1.76781 20.5,1.5C 20.2865,3.14387 20.6198,4.64387 21.5,6C 20.7734,7.39881 20.2734,8.89881 20,10.5C 20.0005,3.96683 17.5005,2.6335 12.5,6.5C 12.5,7.83333 12.5,9.16667 12.5,10.5C 11.5028,10.5299 10.8361,10.0299 10.5,9C 11.6901,7.19234 11.6901,5.359 10.5,3.5C 11.6773,1.02541 13.6773,0.0254148 16.5,0.5 Z"/></g>
<g><path style="opacity:1" fill="#f1dec6" d="M 12.5,6.5 C 14.5,6.5 16.5,6.5 18.5,6.5C 18.5,8.5 18.5,10.5 18.5,12.5C 15.5327,14.2659 13.5327,13.5992 12.5,10.5C 12.5,9.16667 12.5,7.83333 12.5,6.5 Z"/></g>
<g><path style="opacity:0.74" fill="#110d0a" d="M 10.5,-0.5 C 12.5,-0.5 14.5,-0.5 16.5,-0.5C 16.5,-0.166667 16.5,0.166667 16.5,0.5C 13.6773,0.0254148 11.6773,1.02541 10.5,3.5C 11.6901,5.359 11.6901,7.19234 10.5,9C 10.8361,10.0299 11.5028,10.5299 12.5,10.5C 13.5327,13.5992 15.5327,14.2659 18.5,12.5C 18.8333,12.5 19.1667,12.5 19.5,12.5C 18.375,13.6522 18.375,14.6522 19.5,15.5C 19.5,15.8333 19.5,16.1667 19.5,16.5C 18.2223,16.2178 17.2223,15.5511 16.5,14.5C 15.8333,14.5 15.1667,14.5 14.5,14.5C 11.5201,15.8293 10.1868,18.1626 10.5,21.5C 10.5,23.1667 10.5,24.8333 10.5,26.5C 11.5,26.5 12.5,26.5 13.5,26.5C 13.3369,30.0348 14.6702,31.0348 17.5,29.5C 17.8333,29.5 18.1667,29.5 18.5,29.5C 19.0968,30.1386 19.9302,30.472 21,30.5C 22.6991,30.6134 23.8658,29.9468 24.5,28.5C 24.8333,28.5 25.1667,28.5 25.5,28.5C 25.4431,29.609 25.1098,30.609 24.5,31.5C 18.5,31.5 12.5,31.5 6.5,31.5C 5.39322,26.9185 5.22656,22.2519 6,17.5C 8.20159,16.5984 10.3683,15.5984 12.5,14.5C 10.9587,12.796 9.6254,10.9626 8.5,9C 9.69014,7.19234 9.69014,5.359 8.5,3.5C 8.75166,1.92714 9.41833,0.593804 10.5,-0.5 Z"/></g>
<g><path style="opacity:1" fill="#c86929" d="M 9.5,25.5 C 9.16667,25.5 8.83333,25.5 8.5,25.5C 5.80946,22.745 5.97613,20.0784 9,17.5C 9.49742,20.146 9.66409,22.8127 9.5,25.5 Z"/></g>
<g><path style="opacity:1" fill="#472a15" d="M 14.5,14.5 C 15.1667,17.1667 15.8333,17.1667 16.5,14.5C 17.2223,15.5511 18.2223,16.2178 19.5,16.5C 20.3007,18.0418 20.634,19.7085 20.5,21.5C 19.448,21.6495 18.448,21.4828 17.5,21C 18.5171,19.9505 18.6838,18.7839 18,17.5C 16.3333,18.8333 14.6667,18.8333 13,17.5C 12.5172,18.448 12.3505,19.448 12.5,20.5C 13.8333,20.5 15.1667,20.5 16.5,20.5C 16.5,21.5 16.5,22.5 16.5,23.5C 14.4597,25.8665 13.4597,25.1999 13.5,21.5C 12.5,21.5 11.5,21.5 10.5,21.5C 10.1868,18.1626 11.5201,15.8293 14.5,14.5 Z"/></g>
<g><path style="opacity:1" fill="#f8e2c8" d="M 14.5,14.5 C 15.1667,14.5 15.8333,14.5 16.5,14.5C 15.8333,17.1667 15.1667,17.1667 14.5,14.5 Z"/></g>
<g><path style="opacity:1" fill="#a0551b" d="M 20.5,21.5 C 20.5,23.1667 20.5,24.8333 20.5,26.5C 18.8595,25.853 17.5261,24.853 16.5,23.5C 16.5,22.5 16.5,21.5 16.5,20.5C 15.1667,20.5 13.8333,20.5 12.5,20.5C 12.3505,19.448 12.5172,18.448 13,17.5C 14.6667,18.8333 16.3333,18.8333 18,17.5C 18.6838,18.7839 18.5171,19.9505 17.5,21C 18.448,21.4828 19.448,21.6495 20.5,21.5 Z"/></g>
<g><path style="opacity:1" fill="#16100a" d="M 19.5,15.5 C 21.4412,15.8693 23.2745,16.536 25,17.5C 25.4986,21.1516 25.6653,24.8183 25.5,28.5C 25.1667,28.5 24.8333,28.5 24.5,28.5C 24.7148,26.8212 24.0481,25.8212 22.5,25.5C 25.1905,22.745 25.0239,20.0784 22,17.5C 21.5026,20.146 21.3359,22.8127 21.5,25.5C 21.5,26.1667 21.5,26.8333 21.5,27.5C 20.8333,27.5 20.5,27.1667 20.5,26.5C 20.5,24.8333 20.5,23.1667 20.5,21.5C 20.634,19.7085 20.3007,18.0418 19.5,16.5C 19.5,16.1667 19.5,15.8333 19.5,15.5 Z"/></g>
<g><path style="opacity:1" fill="#c86929" d="M 22.5,25.5 C 22.1667,25.5 21.8333,25.5 21.5,25.5C 21.3359,22.8127 21.5026,20.146 22,17.5C 25.0239,20.0784 25.1905,22.745 22.5,25.5 Z"/></g>
<g><path style="opacity:1" fill="#5f3d1d" d="M 10.5,21.5 C 11.5,21.5 12.5,21.5 13.5,21.5C 13.4597,25.1999 14.4597,25.8665 16.5,23.5C 17.5261,24.853 18.8595,25.853 20.5,26.5C 20.5,27.1667 20.8333,27.5 21.5,27.5C 20.7095,28.4013 19.7095,29.0679 18.5,29.5C 18.1667,29.5 17.8333,29.5 17.5,29.5C 17.8039,28.8501 18.1373,28.1835 18.5,27.5C 16.9547,26.5481 15.288,26.2148 13.5,26.5C 12.5,26.5 11.5,26.5 10.5,26.5C 10.5,24.8333 10.5,23.1667 10.5,21.5 Z"/></g>
<g><path style="opacity:1" fill="#dac6b0" d="M 8.5,25.5 C 8.83333,25.5 9.16667,25.5 9.5,25.5C 9.75115,27.1703 10.4178,28.6703 11.5,30C 8.76293,31.0798 7.09626,30.2464 6.5,27.5C 6.74716,26.2867 7.41383,25.62 8.5,25.5 Z"/></g>
<g><path style="opacity:1" fill="#e1cfb8" d="M 21.5,25.5 C 21.8333,25.5 22.1667,25.5 22.5,25.5C 24.0481,25.8212 24.7148,26.8212 24.5,28.5C 23.8658,29.9468 22.6991,30.6134 21,30.5C 19.9302,30.472 19.0968,30.1386 18.5,29.5C 19.7095,29.0679 20.7095,28.4013 21.5,27.5C 21.5,26.8333 21.5,26.1667 21.5,25.5 Z"/></g>
<g><path style="opacity:1" fill="#e1c465" d="M 13.5,26.5 C 15.288,26.2148 16.9547,26.5481 18.5,27.5C 18.1373,28.1835 17.8039,28.8501 17.5,29.5C 14.6702,31.0348 13.3369,30.0348 13.5,26.5 Z"/></g>
</svg>
