<?xml version="1.0" encoding="UTF-8"?>
<svg xmlns="http://www.w3.org/2000/svg" xmlns:xlink="http://www.w3.org/1999/xlink" width="44px" height="44px" viewBox="0 0 44 44" version="1.1">
<defs>
<filter id="alpha" filterUnits="objectBoundingBox" x="0%" y="0%" width="100%" height="100%">
  <feColorMatrix type="matrix" in="SourceGraphic" values="0 0 0 0 1 0 0 0 0 1 0 0 0 0 1 0 0 0 1 0"/>
</filter>
<mask id="mask0">
  <g filter="url(#alpha)">
<rect x="0" y="0" width="44" height="44" style="fill:rgb(0%,0%,0%);fill-opacity:0.996078;stroke:none;"/>
  </g>
</mask>
<clipPath id="clip1">
  <rect x="0" y="0" width="44" height="44"/>
</clipPath>
<g id="surface5" clip-path="url(#clip1)">
<path style=" stroke:none;fill-rule:evenodd;fill:rgb(54.901961%,54.901961%,54.901961%);fill-opacity:1;" d="M 32.230469 -0.0351562 L 35.824219 -0.0351562 C 36.230469 0.09375 36.648438 0.226562 37.070312 0.367188 C 37.1875 0.410156 37.289062 0.488281 37.363281 0.585938 C 35.957031 2.066406 34.527344 3.519531 33.074219 4.949219 C 33.175781 5.800781 33.410156 6.644531 33.769531 7.480469 L 33.695312 7.554688 C 33.902344 8.195312 34.121094 8.828125 34.355469 9.460938 C 34.324219 9.488281 34.296875 9.527344 34.285156 9.570312 C 35.816406 9.992188 37.34375 10.433594 38.867188 10.890625 C 40.382812 9.449219 41.875 7.980469 43.339844 6.488281 L 43.597656 6.746094 L 43.523438 6.820312 C 43.683594 7.242188 43.828125 7.671875 43.964844 8.101562 L 43.964844 11.695312 C 43.160156 14.324219 41.472656 16.195312 38.902344 17.308594 C 36.882812 17.863281 34.9375 17.679688 33.074219 16.757812 L 29.773438 20.058594 L 27.976562 18.261719 C 27.003906 17.488281 25.90625 17.242188 24.675781 17.527344 C 24.121094 17.765625 23.613281 18.101562 23.171875 18.515625 L 21.375 16.71875 C 23.320312 14.789062 25.25 12.84375 27.171875 10.890625 C 26.070312 8.6875 26.011719 6.4375 26.988281 4.144531 C 27.800781 2.792969 28.863281 1.679688 30.175781 0.808594 C 30.851562 0.5 31.535156 0.21875 32.230469 -0.0351562 Z M 32.230469 -0.0351562 "/>
</g>
<mask id="mask1">
  <g filter="url(#alpha)">
<rect x="0" y="0" width="44" height="44" style="fill:rgb(0%,0%,0%);fill-opacity:0.996078;stroke:none;"/>
  </g>
</mask>
<clipPath id="clip2">
  <rect x="0" y="0" width="44" height="44"/>
</clipPath>
<g id="surface8" clip-path="url(#clip2)">
<path style=" stroke:none;fill-rule:evenodd;fill:rgb(54.901961%,54.901961%,54.901961%);fill-opacity:1;" d="M 4.65625 1.503906 C 6.523438 2.546875 8.382812 3.609375 10.230469 4.691406 C 10.492188 4.90625 10.699219 5.164062 10.851562 5.464844 L 13.199219 10.011719 L 23.0625 19.875 C 23.136719 19.921875 23.210938 19.921875 23.285156 19.875 C 23.785156 19.273438 24.371094 18.78125 25.042969 18.40625 C 25.804688 18.1875 26.488281 18.332031 27.097656 18.847656 L 42.460938 34.210938 C 42.929688 34.742188 43.140625 35.367188 43.082031 36.078125 C 42.984375 36.316406 42.875 36.550781 42.753906 36.777344 C 41.078125 38.523438 39.378906 40.246094 37.65625 41.945312 C 37.015625 42.480469 36.308594 42.601562 35.53125 42.3125 L 34.941406 41.945312 L 19.433594 26.4375 C 18.800781 25.632812 18.753906 24.800781 19.285156 23.941406 C 19.675781 23.480469 20.09375 23.039062 20.535156 22.625 C 20.582031 22.574219 20.582031 22.527344 20.535156 22.476562 L 10.671875 12.613281 L 5.828125 10.121094 C 5.675781 10.035156 5.539062 9.925781 5.425781 9.789062 C 4.328125 7.925781 3.238281 6.058594 2.164062 4.179688 C 2.261719 4.132812 2.261719 4.082031 2.164062 4.035156 C 3.007812 3.203125 3.839844 2.359375 4.65625 1.503906 Z M 4.65625 1.503906 "/>
</g>
<mask id="mask2">
  <g filter="url(#alpha)">
<rect x="0" y="0" width="44" height="44" style="fill:rgb(0%,0%,0%);fill-opacity:0.992157;stroke:none;"/>
  </g>
</mask>
<clipPath id="clip3">
  <rect x="0" y="0" width="44" height="44"/>
</clipPath>
<g id="surface11" clip-path="url(#clip3)">
<path style=" stroke:none;fill-rule:evenodd;fill:rgb(54.901961%,54.901961%,54.901961%);fill-opacity:1;" d="M 8.101562 43.964844 L 5.023438 43.964844 C 2.964844 43.339844 1.4375 42.070312 0.441406 40.148438 C 0.289062 39.730469 0.128906 39.316406 -0.0351562 38.902344 L -0.0351562 35.824219 C 0.777344 33.3125 2.4375 31.636719 4.949219 30.800781 C 5.800781 30.667969 6.660156 30.621094 7.515625 30.652344 C 10.753906 27.4375 13.96875 24.199219 17.160156 20.9375 C 17.902344 21.335938 18.527344 21.910156 19.03125 22.660156 C 17.960938 23.761719 17.703125 25.019531 18.261719 26.4375 L 18.773438 27.242188 C 19.410156 27.867188 20.03125 28.503906 20.644531 29.148438 C 18.222656 31.679688 15.765625 34.171875 13.273438 36.628906 C 13.449219 39.515625 12.289062 41.730469 9.789062 43.265625 C 9.230469 43.503906 8.667969 43.738281 8.101562 43.964844 Z M 5.976562 33.257812 C 7.742188 33.144531 9.125 33.804688 10.121094 35.238281 C 11.007812 37.054688 10.8125 38.738281 9.535156 40.296875 C 7.726562 41.753906 5.855469 41.835938 3.921875 40.554688 C 2.722656 39.421875 2.273438 38.042969 2.566406 36.410156 C 3.03125 34.671875 4.167969 33.621094 5.976562 33.257812 Z M 5.976562 33.257812 "/>
</g>
</defs>
<g id="surface1">
<use xlink:href="#surface5" mask="url(#mask0)"/>
<use xlink:href="#surface8" mask="url(#mask1)"/>
<use xlink:href="#surface11" mask="url(#mask2)"/>
</g>
</svg>
