<svg width="20" height="20" viewBox="0 0 20 20" fill="none" xmlns="http://www.w3.org/2000/svg">
<path d="M13.3536 13.8536C13.5488 13.6583 13.5488 13.3417 13.3536 13.1464L10.2071 10L13.3536 6.85355C13.5488 6.65829 13.5488 6.34171 13.3536 6.14645C13.1583 5.95118 12.8417 5.95118 12.6464 6.14645L9.14645 9.64645C8.95118 9.84171 8.95118 10.1583 9.14645 10.3536L12.6464 13.8536C12.8417 14.0488 13.1583 14.0488 13.3536 13.8536Z" fill="#303030"/>
<path d="M8.35355 13.8536C8.54882 13.6583 8.54882 13.3417 8.35355 13.1464L5.20711 10L8.35355 6.85355C8.54882 6.65829 8.54882 6.34171 8.35355 6.14645C8.15829 5.95118 7.84171 5.95118 7.64645 6.14645L4.14645 9.64645C3.95118 9.84171 3.95118 10.1583 4.14645 10.3536L7.64645 13.8536C7.84171 14.0488 8.15829 14.0488 8.35355 13.8536Z" fill="#303030"/>
</svg>
