<svg width="20" height="20" viewBox="0 0 20 20" fill="none" xmlns="http://www.w3.org/2000/svg">
<path d="M6.64645 13.8536C6.45118 13.6583 6.45118 13.3417 6.64645 13.1464L9.79289 10L6.64645 6.85355C6.45118 6.65829 6.45118 6.34171 6.64645 6.14645C6.84171 5.95118 7.15829 5.95118 7.35355 6.14645L10.8536 9.64645C11.0488 9.84171 11.0488 10.1583 10.8536 10.3536L7.35355 13.8536C7.15829 14.0488 6.84171 14.0488 6.64645 13.8536Z" fill="#303030"/>
<path d="M11.6464 13.8536C11.4512 13.6583 11.4512 13.3417 11.6464 13.1464L14.7929 10L11.6464 6.85355C11.4512 6.65829 11.4512 6.34171 11.6464 6.14645C11.8417 5.95118 12.1583 5.95118 12.3536 6.14645L15.8536 9.64645C16.0488 9.84171 16.0488 10.1583 15.8536 10.3536L12.3536 13.8536C12.1583 14.0488 11.8417 14.0488 11.6464 13.8536Z" fill="#303030"/>
</svg>
