<svg width="44" height="44" viewBox="0 0 44 23" fill="none" xmlns="http://www.w3.org/2000/svg">
<path fill-rule="evenodd" clip-rule="evenodd" d="M20.1016 14.7274V8.51462C20.1016 5.52926 22.5385 3.1087 25.3685 3.1087H37.9462C40.8548 3.1087 43.2131 5.52926 43.2131 8.51462V14.7274C43.2131 17.7128 40.8548 20.1333 37.9462 20.1333H25.3685C22.5385 20.1333 20.1016 17.7128 20.1016 14.7274Z" fill="#67C5E3"/>
<mask id="mask0_4_100" style="mask-type:luminance" maskUnits="userSpaceOnUse" x="20" y="3" width="24" height="18">
<path d="M20.1016 14.7274V8.51462C20.1016 5.52926 22.5385 3.1087 25.3685 3.1087H37.9462C40.8548 3.1087 43.2131 5.52926 43.2131 8.51462V14.7274C43.2131 17.7128 40.8548 20.1333 37.9462 20.1333H25.3685C22.5385 20.1333 20.1016 17.7128 20.1016 14.7274Z" fill="white"/>
</mask>
<g mask="url(#mask0_4_100)">
<path d="M44.7067 -0.925585V11.6613L18.2936 11.6613V-0.925585L44.7067 -0.925585Z" fill="#4DB7D5"/>
<path d="M28.8274 2.76593V20.6174H27.8324V2.76593H28.8274Z" fill="#3492AC"/>
<path d="M41.2366 19.0288C39.9775 19.9792 38.6858 20.3714 38.3513 19.9048C38.0169 19.4381 38.7665 18.2893 40.0256 17.3388C41.2847 16.3883 42.5765 15.9961 42.9109 16.4628C43.2453 16.9294 42.4957 18.0783 41.2366 19.0288Z" fill="#F5D54F"/>
<path d="M41.2366 4.16302C39.9775 3.21254 38.6858 2.82033 38.3513 3.287C38.0169 3.75366 38.7665 4.90249 40.0256 5.85297C41.2847 6.80346 42.5765 7.19567 42.9109 6.729C43.2453 6.26233 42.4957 5.1135 41.2366 4.16302Z" fill="#F5D54F"/>
</g>
<path fill-rule="evenodd" clip-rule="evenodd" d="M20.1016 14.7274V8.51462C20.1016 5.52926 22.5385 3.1087 25.3685 3.1087H37.9462C40.8548 3.1087 43.2131 5.52926 43.2131 8.51462V14.7274C43.2131 17.7128 40.8548 20.1333 37.9462 20.1333H25.3685C22.5385 20.1333 20.1016 17.7128 20.1016 14.7274Z" stroke="#265663" stroke-width="0.25"/>
<path d="M28.1199 2.05979V21.2629C28.1199 21.6194 27.8383 21.9084 27.491 21.9084H0.842024C0.494699 21.9084 0.213139 21.6194 0.213139 21.2629V2.05979C0.213139 1.7033 0.494699 1.41431 0.842024 1.41431H27.491C27.8383 1.41431 28.1199 1.7033 28.1199 2.05979Z" fill="#50B6D1" stroke="#265663" stroke-width="0.25"/>
<path fill-rule="evenodd" clip-rule="evenodd" d="M27.2552 20.6981V2.54391C27.2552 2.22117 27.0194 1.97911 26.7049 1.97911H1.54952C1.23508 1.97911 0.999245 2.22117 0.999245 2.54391V20.6981C0.999245 21.0209 1.23508 21.2629 1.54952 21.2629H26.7049C27.0194 21.2629 27.2552 21.0209 27.2552 20.6981Z" fill="#9AD7E9"/>
<mask id="mask1_4_100" style="mask-type:luminance" maskUnits="userSpaceOnUse" x="0" y="1" width="28" height="21">
<path d="M27.2552 20.6981V2.54391C27.2552 2.22117 27.0194 1.97911 26.7049 1.97911H1.54952C1.23508 1.97911 0.999245 2.22117 0.999245 2.54391V20.6981C0.999245 21.0209 1.23508 21.2629 1.54952 21.2629H26.7049C27.0194 21.2629 27.2552 21.0209 27.2552 20.6981Z" fill="white"/>
</mask>
<g mask="url(#mask1_4_100)">
<path d="M28.1199 -1.2483V11.6614L-1.90935 11.6614V-1.2483L28.1199 -1.2483Z" fill="#66C5E3"/>
</g>
<path fill-rule="evenodd" clip-rule="evenodd" d="M33.544 18.4389L29.6921 17.7935V5.36789C30.9499 5.12583 32.2862 4.96446 33.544 4.80309C36.4526 5.93269 37.1601 16.1797 33.544 18.4389Z" fill="#6C6969"/>
<mask id="mask2_4_100" style="mask-type:luminance" maskUnits="userSpaceOnUse" x="29" y="4" width="7" height="15">
<path d="M33.544 18.4389L29.6921 17.7935V5.36789C30.9499 5.12583 32.2862 4.96446 33.544 4.80309C36.4526 5.93269 37.1601 16.1797 33.544 18.4389Z" fill="white"/>
</mask>
<g mask="url(#mask2_4_100)">
<path fill-rule="evenodd" clip-rule="evenodd" d="M28.2771 2.6246C30.714 2.94734 33.151 3.27008 35.6665 3.59282C34.4873 8.35327 32.0504 11.9034 28.7488 15.615L28.2771 2.6246Z" fill="#282627"/>
</g>
<path fill-rule="evenodd" clip-rule="evenodd" d="M29.5349 19.2458L31.5788 19.0037L29.5349 18.4389V19.2458Z" fill="#282827"/>
<path fill-rule="evenodd" clip-rule="evenodd" d="M31.4216 21.747C31.5002 22.3118 31.8146 22.3925 32.4435 21.8277C33.151 21.1016 33.3868 20.2947 33.3082 19.4072C33.2296 18.6003 32.2077 18.5196 31.5002 18.7617C31.5002 19.8106 31.4216 20.7788 31.4216 21.747Z" fill="#4DB7D5" stroke="#265663" stroke-width="0.25"/>
<path fill-rule="evenodd" clip-rule="evenodd" d="M31.4215 1.25294C31.5788 0.688143 31.8932 0.607457 32.5221 1.17226C33.151 1.89842 33.3868 2.70528 33.3082 3.59282C33.2296 4.39967 32.2863 4.48036 31.5788 4.2383C31.5002 3.27008 31.5002 2.22117 31.4215 1.25294Z" fill="#4DB7D5" stroke="#265663" stroke-width="0.25"/>
<path fill-rule="evenodd" clip-rule="evenodd" d="M29.6135 3.91555L31.6574 4.07693L29.6135 4.64172V3.91555Z" fill="#282827"/>
</svg>
