<svg width="45" height="45" viewBox="0 0 45 32" fill="none" xmlns="http://www.w3.org/2000/svg">
<path d="M0 7H19.7191L21.236 10H1.51685L0 7ZM2.02247 13H21.7416L23.2584 16H3.53933L2.02247 13ZM34.8876 29C36.5663 29 37.9213 27.66 37.9213 26C37.9213 24.34 36.5663 23 34.8876 23C33.209 23 31.8539 24.34 31.8539 26C31.8539 27.66 33.209 29 34.8876 29ZM37.9213 11H32.8652V16H41.8854L37.9213 11ZM14.6629 29C16.3416 29 17.6966 27.66 17.6966 26C17.6966 24.34 16.3416 23 14.6629 23C12.9843 23 11.6292 24.34 11.6292 26C11.6292 27.66 12.9843 29 14.6629 29ZM38.9326 8L45 16V26H40.9551C40.9551 29.32 38.2449 32 34.8876 32C31.5303 32 28.8202 29.32 28.8202 26H20.7303C20.7303 29.32 18 32 14.6629 32C11.3056 32 8.59551 29.32 8.59551 26H4.55056V19H8.59551V22H10.1326C11.2449 20.78 12.8629 20 14.6629 20C16.4629 20 18.0809 20.78 19.1933 22H28.8202V4H4.55056C4.55056 1.78 6.35056 0 8.59551 0H32.8652V8H38.9326Z" fill="black"/>
</svg>
