<svg width="40" height="40" viewBox="0 0 40 40" fill="none" xmlns="http://www.w3.org/2000/svg">
<path d="M6 33H31.2V30.1111H6V33ZM31.2 14.2222H28.4V9.88889H31.2V14.2222ZM31.2 7H8.8V21.4444C8.8 22.9768 9.39 24.4464 10.4402 25.5299C11.4904 26.6135 12.9148 27.2222 14.4 27.2222H22.8C24.2852 27.2222 25.7096 26.6135 26.7598 25.5299C27.81 24.4464 28.4 22.9768 28.4 21.4444V17.1111H31.2C31.9426 17.1111 32.6548 16.8067 33.1799 16.265C33.705 15.7232 34 14.9884 34 14.2222V9.88889C34 8.28556 32.74 7 31.2 7Z" fill="#303030"/>
</svg>
