<svg width="30" height="30" viewBox="0 0 30 30" fill="none" xmlns="http://www.w3.org/2000/svg">
<path d="M4 26H24.7V23.6667H4V26ZM24.7 10.8333H22.4V7.33333H24.7V10.8333ZM24.7 5H6.3V16.6667C6.3 17.9043 6.78464 19.0913 7.64731 19.9665C8.50998 20.8417 9.68 21.3333 10.9 21.3333H17.8C19.02 21.3333 20.19 20.8417 21.0527 19.9665C21.9154 19.0913 22.4 17.9043 22.4 16.6667V13.1667H24.7C25.31 13.1667 25.895 12.9208 26.3263 12.4832C26.7577 12.0457 27 11.4522 27 10.8333V7.33333C27 6.03833 25.965 5 24.7 5Z" fill="#303030"/>
</svg>
