<svg width="40" height="40" viewBox="0 0 40 40" fill="none" xmlns="http://www.w3.org/2000/svg">
<path d="M29.9998 10V6.66668H33.3332V3.33334H9.99984C8.1665 3.33334 6.6665 4.83334 6.6665 6.66668V33.3333C6.6665 35.1667 8.1665 36.6667 9.99984 36.6667H33.3332V33.3333H26.6165C28.6665 31.8167 29.9998 29.4 29.9998 26.6667V18.3333H13.3332V26.6667C13.3332 29.4 14.6832 31.8167 16.7165 33.3333H9.99984V6.66668H13.3332V10C13.3332 10.9167 14.0832 11.6667 14.9998 11.6667H28.3332C29.2498 11.6667 29.9998 10.9167 29.9998 10ZM21.6665 13.3333C22.5832 13.3333 23.3332 14.0833 23.3332 15C23.3332 15.9167 22.5832 16.6667 21.6665 16.6667C20.7498 16.6667 19.9998 15.9167 19.9998 15C19.9998 14.0833 20.7498 13.3333 21.6665 13.3333Z" fill="#303030"/>
</svg>
