<svg width="21" height="18" viewBox="0 0 21 18" fill="none" xmlns="http://www.w3.org/2000/svg">
<path d="M10.4999 13.8296C8.01108 13.8296 5.9964 11.8803 5.81101 9.40998L2.36898 6.71823C1.9165 7.29264 1.50011 7.89992 1.16411 8.56397C1.08905 8.71422 1.04994 8.88021 1.04994 9.04857C1.04994 9.21692 1.08905 9.38292 1.16411 9.53316C2.94353 13.0463 6.46627 15.4233 10.4999 15.4233C11.3829 15.4233 12.2347 15.2905 13.0557 15.076L11.353 13.7429C11.0718 13.7979 10.7863 13.8269 10.4999 13.8296ZM20.7971 15.7587L17.1697 12.9218C18.2716 11.9822 19.1778 10.8302 19.8357 9.53283C19.9107 9.38258 19.9499 9.21659 19.9499 9.04823C19.9499 8.87988 19.9107 8.71389 19.8357 8.56364C18.0563 5.05045 14.5335 2.67347 10.4999 2.67347C8.81055 2.67554 7.14864 3.10589 5.66597 3.92521L1.49158 0.660381C1.43715 0.617519 1.3749 0.585931 1.30839 0.567422C1.24189 0.548913 1.17243 0.543846 1.10399 0.55251C1.03555 0.561175 0.96947 0.583401 0.909522 0.617919C0.849574 0.652437 0.796936 0.69857 0.754614 0.753681L0.110507 1.59272C0.0250628 1.70394 -0.0132241 1.84495 0.00406681 1.98474C0.0213577 2.12452 0.0928103 2.25164 0.20271 2.33812L19.5082 17.4364C19.5626 17.4793 19.6249 17.5109 19.6914 17.5294C19.7579 17.5479 19.8274 17.553 19.8958 17.5443C19.9642 17.5356 20.0303 17.5134 20.0903 17.4789C20.1502 17.4444 20.2029 17.3982 20.2452 17.3431L20.8896 16.5041C20.975 16.3928 21.0133 16.2518 20.9959 16.112C20.9786 15.9722 20.907 15.8451 20.7971 15.7587ZM14.7688 11.0439L13.4793 10.0352C13.5879 9.71759 13.6455 9.38444 13.6499 9.0484C13.6563 8.55642 13.5486 8.06978 13.3354 7.62757C13.1222 7.18535 12.8095 6.79989 12.4224 6.50215C12.0353 6.20441 11.5846 6.00268 11.1065 5.91317C10.6284 5.82367 10.1362 5.84887 9.66942 5.98677C9.86728 6.25807 9.97431 6.58624 9.9749 6.92342C9.97 7.03563 9.95306 7.14696 9.92437 7.25545L7.50905 5.36654C8.34805 4.65707 9.4065 4.26802 10.4999 4.2672C11.1205 4.26685 11.7351 4.39028 12.3085 4.63044C12.8819 4.87059 13.4029 5.22276 13.8417 5.6668C14.2806 6.11085 14.6286 6.63806 14.8659 7.2183C15.1032 7.79854 15.2252 8.42043 15.2249 9.0484C15.2249 9.76658 15.0513 10.4359 14.7688 11.0442V11.0439Z" fill="#999999"/>
</svg>
