<svg width="40" height="40" viewBox="0 0 40 40" fill="none" xmlns="http://www.w3.org/2000/svg">
<path d="M28.3333 15H11.6667V11.6667H28.3333V15ZM28.3333 21.6667H11.6667V18.3333H28.3333V21.6667ZM23.3333 28.3333H11.6667V25H23.3333V28.3333ZM20 4.99999C20.442 4.99999 20.8659 5.17558 21.1785 5.48815C21.4911 5.80071 21.6667 6.22463 21.6667 6.66666C21.6667 7.10868 21.4911 7.53261 21.1785 7.84517C20.8659 8.15773 20.442 8.33332 20 8.33332C19.558 8.33332 19.134 8.15773 18.8215 7.84517C18.5089 7.53261 18.3333 7.10868 18.3333 6.66666C18.3333 6.22463 18.5089 5.80071 18.8215 5.48815C19.134 5.17558 19.558 4.99999 20 4.99999ZM31.6667 4.99999H24.7C24 3.06666 22.1667 1.66666 20 1.66666C17.8333 1.66666 16 3.06666 15.3 4.99999H8.33333C7.44928 4.99999 6.60143 5.35118 5.97631 5.9763C5.35119 6.60142 5 7.44927 5 8.33332V31.6667C5 32.5507 5.35119 33.3986 5.97631 34.0237C6.60143 34.6488 7.44928 35 8.33333 35H31.6667C32.5507 35 33.3986 34.6488 34.0237 34.0237C34.6488 33.3986 35 32.5507 35 31.6667V8.33332C35 7.44927 34.6488 6.60142 34.0237 5.9763C33.3986 5.35118 32.5507 4.99999 31.6667 4.99999Z" fill="white"/>
</svg>
