<svg width="40" height="40" viewBox="0 0 40 40" fill="none" xmlns="http://www.w3.org/2000/svg">
<path d="M36.6667 9.16663H15C13.1667 9.16663 11.6667 10.6666 11.6667 12.5V27.5C11.6667 29.35 13.1667 30.8333 15 30.8333H36.6667C38.5167 30.8333 40 29.35 40 27.5V12.5C40 10.6666 38.5167 9.16663 36.6667 9.16663ZM36.6667 15.2833L25.8333 20.8333L15 15.2833V12.5L25.8333 18.0166L36.6667 12.5V15.2833ZM8.33333 27.5C8.33333 27.7833 8.38333 28.05 8.41667 28.3333H1.66667C0.746667 28.3333 0 27.5833 0 26.6666C0 25.75 0.746667 25 1.66667 25H8.33333V27.5ZM5 11.6666H8.41667C8.38333 11.95 8.33333 12.2166 8.33333 12.5V15H5C4.08333 15 3.33333 14.25 3.33333 13.3333C3.33333 12.4166 4.08333 11.6666 5 11.6666ZM1.66667 20C1.66667 19.0833 2.41667 18.3333 3.33333 18.3333H8.33333V21.6666H3.33333C2.41667 21.6666 1.66667 20.9166 1.66667 20Z" fill="white"/>
</svg>
