<svg width="40" height="40" viewBox="0 0 40 40" fill="none" xmlns="http://www.w3.org/2000/svg">
<path d="M25.8334 20C30 20 33.3334 23.3334 33.3334 27.5C33.3334 28.9667 32.9167 30.35 32.1834 31.5L37.3167 36.6667L35 38.9834L29.8 33.8667C28.65 34.5834 27.2834 35 25.8334 35C21.6667 35 18.3334 31.6667 18.3334 27.5C18.3334 23.3334 21.6667 20 25.8334 20ZM25.8334 23.3334C24.7283 23.3334 23.6685 23.7724 22.8871 24.5538C22.1057 25.3352 21.6667 26.395 21.6667 27.5C21.6667 28.6051 22.1057 29.6649 22.8871 30.4463C23.6685 31.2277 24.7283 31.6667 25.8334 31.6667C26.9384 31.6667 27.9983 31.2277 28.7797 30.4463C29.5611 29.6649 30 28.6051 30 27.5C30 26.395 29.5611 25.3352 28.7797 24.5538C27.9983 23.7724 26.9384 23.3334 25.8334 23.3334ZM23.3334 10.1834L13.3334 6.66671V26.4834L15 27.0667V27.5C15 28.5667 15.15 29.6 15.4334 30.5667L13.3334 29.8334L4.43337 33.2834L4.16671 33.3334C3.94569 33.3334 3.73373 33.2456 3.57745 33.0893C3.42117 32.933 3.33337 32.7211 3.33337 32.5V7.30004C3.33337 6.91671 3.58337 6.61671 3.93337 6.50004L13.3334 3.33337L23.3334 6.83337L32.2334 3.33337H32.5C32.7211 3.33337 32.933 3.42117 33.0893 3.57745C33.2456 3.73373 33.3334 3.94569 33.3334 4.16671V19.6834C31.3834 17.8167 28.75 16.6667 25.8334 16.6667C25 16.6667 24.1667 16.7667 23.3334 16.95V10.1834Z" fill="white"/>
</svg>
